<mxfile host="app.diagrams.net" modified="2023-10-25T03:28:07.118Z" agent="Mozilla/5.0 (Macintosh; Intel Mac OS X 10_15_7) AppleWebKit/537.36 (KHTML, like Gecko) Chrome/118.0.0.0 Safari/537.36" version="22.0.7" etag="Loa--XbSqKgsLE1v-Vp8" type="github">
  <diagram name="Page-1" id="Sc2EAw1cWc5oi9GrydwZ">
    <mxGraphModel>
      <root>
        <mxCell id="0" />
        <mxCell id="1" parent="0" />
      </root>
    </mxGraphModel>
  </diagram>
</mxfile>
